      <svg width="53" height="53" viewBox="0 0 53 53" fill="none" xmlns="http://www.w3.org/2000/svg">
        <path fill-rule="evenodd" clip-rule="evenodd" d="M31.5635 7.27181C32.4259 6.4094 33.8241 6.4094 34.6865 7.27181L45.7282 18.3135C46.5906 19.1759 46.5906 20.5741 45.7282 21.4365L34.6865 32.4782C33.8241 33.3406 32.4259 33.3406 31.5635 32.4782C30.7011 31.6158 30.7011 30.2175 31.5635 29.3551L41.0436 19.875L31.5635 10.3949C30.7011 9.53245 30.7011 8.13421 31.5635 7.27181Z" fill="white" />
        <path fill-rule="evenodd" clip-rule="evenodd" d="M17.6667 22.0834C15.9096 22.0834 14.2245 22.7814 12.9821 24.0238C11.7397 25.2663 11.0417 26.9514 11.0417 28.7084V44.1667C11.0417 45.3864 10.053 46.3751 8.83333 46.3751C7.6137 46.3751 6.625 45.3864 6.625 44.1667V28.7084C6.625 25.78 7.78831 22.9715 9.85903 20.9008C11.9297 18.8301 14.7382 17.6667 17.6667 17.6667H44.1667C45.3863 17.6667 46.375 18.6555 46.375 19.8751C46.375 21.0947 45.3863 22.0834 44.1667 22.0834H17.6667Z" fill="white" />
      </svg>