<svg width="12" height="12" viewBox="0 0 12 12" fill="none" xmlns="http://www.w3.org/2000/svg">
<path fill-rule="evenodd" clip-rule="evenodd" d="M5.69303 0.605324C5.87358 0.464892 6.12642 0.464892 6.30697 0.605324L10.807 4.10532C10.9288 4.20005 11 4.3457 11 4.5V10C11 10.3978 10.842 10.7794 10.5607 11.0607C10.2794 11.342 9.89783 11.5 9.5 11.5H2.5C2.10217 11.5 1.72064 11.342 1.43934 11.0607C1.15804 10.7794 1 10.3978 1 10V4.5C1 4.3457 1.07124 4.20005 1.19303 4.10532L5.69303 0.605324ZM2 4.74454V10C2 10.1326 2.05268 10.2598 2.14645 10.3536C2.24021 10.4473 2.36739 10.5 2.5 10.5H9.5C9.63261 10.5 9.75978 10.4473 9.85355 10.3536C9.94732 10.2598 10 10.1326 10 10V4.74454L6 1.63343L2 4.74454Z" fill="#FFB787"/>
<path fill-rule="evenodd" clip-rule="evenodd" d="M4 6C4 5.72386 4.22386 5.5 4.5 5.5H7.5C7.77614 5.5 8 5.72386 8 6V11C8 11.2761 7.77614 11.5 7.5 11.5C7.22386 11.5 7 11.2761 7 11V6.5H5V11C5 11.2761 4.77614 11.5 4.5 11.5C4.22386 11.5 4 11.2761 4 11V6Z" fill="#FFB787"/>
</svg>
