<svg width="12" height="12" viewBox="0 0 12 12" fill="none" xmlns="http://www.w3.org/2000/svg">
<path fill-rule="evenodd" clip-rule="evenodd" d="M6 1.5C3.51472 1.5 1.5 3.51472 1.5 6C1.5 8.48528 3.51472 10.5 6 10.5C8.48528 10.5 10.5 8.48528 10.5 6C10.5 3.51472 8.48528 1.5 6 1.5ZM0.5 6C0.5 2.96243 2.96243 0.5 6 0.5C9.03757 0.5 11.5 2.96243 11.5 6C11.5 9.03757 9.03757 11.5 6 11.5C2.96243 11.5 0.5 9.03757 0.5 6Z" fill="#BDBDBD"/>
<path fill-rule="evenodd" clip-rule="evenodd" d="M0.5 6C0.5 5.72386 0.723858 5.5 1 5.5H11C11.2761 5.5 11.5 5.72386 11.5 6C11.5 6.27614 11.2761 6.5 11 6.5H1C0.723858 6.5 0.5 6.27614 0.5 6Z" fill="#BDBDBD"/>
<path fill-rule="evenodd" clip-rule="evenodd" d="M6 0.5C6.14046 0.5 6.27444 0.55908 6.36917 0.662788C7.70155 2.12145 8.45874 4.01443 8.49989 5.98959C8.50004 5.99653 8.50004 6.00347 8.49989 6.01041C8.45874 7.98557 7.70155 9.87855 6.36917 11.3372C6.27444 11.4409 6.14046 11.5 6 11.5C5.85954 11.5 5.72556 11.4409 5.63083 11.3372C4.29845 9.87855 3.54126 7.98557 3.50011 6.01041C3.49996 6.00347 3.49996 5.99653 3.50011 5.98959C3.54126 4.01443 4.29845 2.12145 5.63083 0.662788C5.72556 0.55908 5.85954 0.5 6 0.5ZM4.50012 6C4.53438 7.53742 5.06313 9.01758 6 10.2246C6.93687 9.01758 7.46562 7.53742 7.49988 6C7.46562 4.46258 6.93687 2.98242 6 1.7754C5.06313 2.98242 4.53438 4.46258 4.50012 6Z" fill="#BDBDBD"/>
</svg>
