<svg width="20" height="20" viewBox="0 0 20 20" fill="none" xmlns="http://www.w3.org/2000/svg">
<path fill-rule="evenodd" clip-rule="evenodd" d="M9.52758 3.41557C9.8163 3.55433 9.99992 3.84632 9.99992 4.16665V15.8333C9.99992 16.1537 9.8163 16.4456 9.52758 16.5844C9.23886 16.7232 8.89615 16.6842 8.64601 16.484L4.7076 13.3333H1.66659C1.20635 13.3333 0.833252 12.9602 0.833252 12.5V7.49999C0.833252 7.03975 1.20635 6.66665 1.66659 6.66665H4.7076L8.64601 3.51593C8.89615 3.31582 9.23886 3.2768 9.52758 3.41557ZM8.33325 5.90051L5.5205 8.15071C5.37274 8.26892 5.18915 8.33332 4.99992 8.33332H2.49992V11.6667H4.99992C5.18915 11.6667 5.37274 11.7311 5.5205 11.8493L8.33325 14.0995V5.90051Z" fill="white"/>
<path fill-rule="evenodd" clip-rule="evenodd" d="M15.3025 3.51901C15.628 3.19363 16.1557 3.19371 16.481 3.51919C18.1995 5.23819 19.1649 7.56935 19.1649 10C19.1649 12.4307 18.1995 14.7619 16.481 16.4809C16.1557 16.8063 15.628 16.8064 15.3025 16.481C14.977 16.1556 14.977 15.628 15.3024 15.3025C16.7084 13.8961 17.4983 11.9888 17.4983 10C17.4983 8.01129 16.7084 6.10398 15.3024 4.69752C14.977 4.37204 14.977 3.8444 15.3025 3.51901ZM12.3609 6.46068C12.6864 6.13529 13.214 6.13537 13.5394 6.46086C14.4767 7.3985 15.0033 8.67004 15.0033 9.99586C15.0033 11.3217 14.4767 12.5932 13.5394 13.5309C13.214 13.8563 12.6864 13.8564 12.3609 13.531C12.0354 13.2056 12.0353 12.678 12.3607 12.3525C12.9856 11.7274 13.3366 10.8797 13.3366 9.99586C13.3366 9.11198 12.9856 8.26428 12.3607 7.63919C12.0353 7.3137 12.0354 6.78607 12.3609 6.46068Z" fill="white"/>
</svg>
