<svg width="12" height="12" viewBox="0 0 12 12" fill="none" xmlns="http://www.w3.org/2000/svg">
<path fill-rule="evenodd" clip-rule="evenodd" d="M5.77639 0.552786C5.91716 0.482405 6.08284 0.482405 6.22361 0.552786L11.2236 3.05279C11.393 3.13748 11.5 3.31061 11.5 3.5C11.5 3.68939 11.393 3.86252 11.2236 3.94721L6.22361 6.44721C6.08284 6.5176 5.91716 6.5176 5.77639 6.44721L0.776393 3.94721C0.607001 3.86252 0.5 3.68939 0.5 3.5C0.5 3.31061 0.607001 3.13748 0.776393 3.05279L5.77639 0.552786ZM2.11803 3.5L6 5.44098L9.88197 3.5L6 1.55902L2.11803 3.5Z" fill="#858585"/>
<path fill-rule="evenodd" clip-rule="evenodd" d="M0.552896 8.27638C0.676391 8.02939 0.976727 7.92928 1.22372 8.05277L6.00011 10.441L10.7765 8.05277C11.0235 7.92928 11.3238 8.02939 11.4473 8.27638C11.5708 8.52337 11.4707 8.82371 11.2237 8.9472L6.22372 11.4472C6.08295 11.5176 5.91727 11.5176 5.7765 11.4472L0.776503 8.9472C0.529513 8.82371 0.429401 8.52337 0.552896 8.27638Z" fill="#858585"/>
<path fill-rule="evenodd" clip-rule="evenodd" d="M0.552896 5.77638C0.676391 5.52939 0.976727 5.42928 1.22372 5.55277L6.00011 7.94097L10.7765 5.55277C11.0235 5.42928 11.3238 5.52939 11.4473 5.77638C11.5708 6.02337 11.4707 6.32371 11.2237 6.4472L6.22372 8.9472C6.08295 9.01758 5.91727 9.01758 5.7765 8.9472L0.776503 6.4472C0.529513 6.32371 0.429401 6.02337 0.552896 5.77638Z" fill="#858585"/>
</svg>
