<svg width="20" height="20" viewBox="0 0 20 20" fill="none" xmlns="http://www.w3.org/2000/svg">
<path fill-rule="evenodd" clip-rule="evenodd" d="M4.16675 1.66671C4.16675 1.20647 4.53984 0.833374 5.00008 0.833374H15.0001C15.4603 0.833374 15.8334 1.20647 15.8334 1.66671V7.50004C15.8334 7.96028 15.4603 8.33337 15.0001 8.33337C14.5398 8.33337 14.1667 7.96028 14.1667 7.50004V2.50004H5.83341V7.50004C5.83341 7.96028 5.46032 8.33337 5.00008 8.33337C4.53984 8.33337 4.16675 7.96028 4.16675 7.50004V1.66671Z" fill="white"/>
<path fill-rule="evenodd" clip-rule="evenodd" d="M3.33325 8.33329C3.11224 8.33329 2.90028 8.42109 2.744 8.57737C2.58772 8.73365 2.49992 8.94561 2.49992 9.16663V13.3333C2.49992 13.5543 2.58772 13.7663 2.744 13.9225C2.90028 14.0788 3.11224 14.1666 3.33325 14.1666H4.99992C5.46016 14.1666 5.83325 14.5397 5.83325 15C5.83325 15.4602 5.46016 15.8333 4.99992 15.8333H3.33325C2.67021 15.8333 2.03433 15.5699 1.56548 15.1011C1.09664 14.6322 0.833252 13.9963 0.833252 13.3333V9.16663C0.833252 8.50358 1.09664 7.8677 1.56548 7.39886C2.03433 6.93002 2.67021 6.66663 3.33325 6.66663H16.6666C17.3296 6.66663 17.9655 6.93002 18.4344 7.39886C18.9032 7.8677 19.1666 8.50358 19.1666 9.16663V13.3333C19.1666 13.9963 18.9032 14.6322 18.4344 15.1011C17.9655 15.5699 17.3296 15.8333 16.6666 15.8333H14.9999C14.5397 15.8333 14.1666 15.4602 14.1666 15C14.1666 14.5397 14.5397 14.1666 14.9999 14.1666H16.6666C16.8876 14.1666 17.0996 14.0788 17.2558 13.9225C17.4121 13.7663 17.4999 13.5543 17.4999 13.3333V9.16663C17.4999 8.94561 17.4121 8.73365 17.2558 8.57737C17.0996 8.42109 16.8876 8.33329 16.6666 8.33329H3.33325Z" fill="white"/>
<path fill-rule="evenodd" clip-rule="evenodd" d="M4.16675 11.6667C4.16675 11.2065 4.53984 10.8334 5.00008 10.8334H15.0001C15.4603 10.8334 15.8334 11.2065 15.8334 11.6667V18.3334C15.8334 18.7936 15.4603 19.1667 15.0001 19.1667H5.00008C4.53984 19.1667 4.16675 18.7936 4.16675 18.3334V11.6667ZM5.83341 12.5V17.5H14.1667V12.5H5.83341Z" fill="white"/>
</svg>
