<svg width="12" height="12" viewBox="0 0 12 12" fill="none" xmlns="http://www.w3.org/2000/svg">
<path fill-rule="evenodd" clip-rule="evenodd" d="M7 1.5C7 1.22386 7.22386 1 7.5 1H10.5C10.7761 1 11 1.22386 11 1.5V4.5C11 4.77614 10.7761 5 10.5 5C10.2239 5 10 4.77614 10 4.5V2H7.5C7.22386 2 7 1.77614 7 1.5Z" fill="#858585"/>
<path fill-rule="evenodd" clip-rule="evenodd" d="M1.5 7C1.77614 7 2 7.22386 2 7.5V10H4.5C4.77614 10 5 10.2239 5 10.5C5 10.7761 4.77614 11 4.5 11H1.5C1.22386 11 1 10.7761 1 10.5V7.5C1 7.22386 1.22386 7 1.5 7Z" fill="#858585"/>
<path fill-rule="evenodd" clip-rule="evenodd" d="M10.8536 1.14645C11.0488 1.34171 11.0488 1.65829 10.8536 1.85355L7.35355 5.35355C7.15829 5.54882 6.84171 5.54882 6.64645 5.35355C6.45118 5.15829 6.45118 4.84171 6.64645 4.64645L10.1464 1.14645C10.3417 0.951184 10.6583 0.951184 10.8536 1.14645Z" fill="#858585"/>
<path fill-rule="evenodd" clip-rule="evenodd" d="M5.35355 6.64645C5.54882 6.84171 5.54882 7.15829 5.35355 7.35355L1.85355 10.8536C1.65829 11.0488 1.34171 11.0488 1.14645 10.8536C0.951184 10.6583 0.951184 10.3417 1.14645 10.1464L4.64645 6.64645C4.84171 6.45118 5.15829 6.45118 5.35355 6.64645Z" fill="#858585"/>
</svg>
