<svg width="20" height="20" viewBox="0 0 20 20" fill="none" xmlns="http://www.w3.org/2000/svg">
<path d="M10 4C8.81331 4 7.65327 4.35189 6.66658 5.01118C5.67988 5.67047 4.91085 6.60754 4.45672 7.7039C4.0026 8.80026 3.88378 10.0067 4.11529 11.1705C4.3468 12.3344 4.91824 13.4035 5.75736 14.2426C6.59647 15.0818 7.66557 15.6532 8.82946 15.8847C9.99334 16.1162 11.1997 15.9974 12.2961 15.5433C13.3925 15.0892 14.3295 14.3201 14.9888 13.3334C15.6481 12.3467 16 11.1867 16 10C15.9984 8.40919 15.3658 6.88399 14.2409 5.75911C13.116 4.63424 11.5908 4.00159 10 4ZM10 15C9.01109 15 8.04439 14.7068 7.22215 14.1573C6.3999 13.6079 5.75904 12.827 5.3806 11.9134C5.00216 10.9998 4.90315 9.99445 5.09607 9.02455C5.289 8.05464 5.7652 7.16373 6.46447 6.46447C7.16373 5.7652 8.05464 5.289 9.02455 5.09607C9.99445 4.90315 10.9998 5.00216 11.9134 5.3806C12.827 5.75904 13.6079 6.3999 14.1573 7.22215C14.7068 8.04439 15 9.01109 15 10C14.9984 11.3256 14.4711 12.5964 13.5338 13.5338C12.5964 14.4711 11.3256 14.9984 10 15Z" fill="black"/>
<path d="M10 2.98297C10.1326 2.98297 10.2598 2.93029 10.3536 2.83652C10.4473 2.74275 10.5 2.61557 10.5 2.48297V0.490967C10.5 0.358358 10.4473 0.231182 10.3536 0.137413C10.2598 0.0436452 10.1326 -0.0090332 10 -0.0090332C9.86739 -0.0090332 9.74021 0.0436452 9.64645 0.137413C9.55268 0.231182 9.5 0.358358 9.5 0.490967V2.48297C9.5 2.61557 9.55268 2.74275 9.64645 2.83652C9.74021 2.93029 9.86739 2.98297 10 2.98297Z" fill="black"/>
<path d="M10 17C9.86739 17 9.74021 17.0527 9.64645 17.1464C9.55268 17.2402 9.5 17.3674 9.5 17.5V19.5C9.5 19.6326 9.55268 19.7598 9.64645 19.8536C9.74021 19.9473 9.86739 20 10 20C10.1326 20 10.2598 19.9473 10.3536 19.8536C10.4473 19.7598 10.5 19.6326 10.5 19.5V17.5C10.5 17.3674 10.4473 17.2402 10.3536 17.1464C10.2598 17.0527 10.1326 17 10 17Z" fill="black"/>
<path d="M4.335 5.03595C4.4293 5.12703 4.5556 5.17743 4.6867 5.17629C4.8178 5.17515 4.9432 5.12257 5.03591 5.02986C5.12861 4.93716 5.1812 4.81175 5.18234 4.68066C5.18348 4.54956 5.13308 4.42326 5.042 4.32895L3.634 2.92095C3.58788 2.8732 3.5327 2.83511 3.4717 2.8089C3.4107 2.7827 3.34509 2.76891 3.2787 2.76833C3.21231 2.76775 3.14647 2.7804 3.08502 2.80554C3.02357 2.83068 2.96775 2.86781 2.9208 2.91476C2.87386 2.9617 2.83673 3.01753 2.81159 3.07898C2.78645 3.14043 2.7738 3.20627 2.77437 3.27266C2.77495 3.33904 2.78874 3.40465 2.81495 3.46566C2.84115 3.52666 2.87924 3.58183 2.927 3.62795L4.335 5.03595Z" fill="black"/>
<path d="M15.66 14.947C15.5657 14.8559 15.4394 14.8055 15.3083 14.8067C15.1772 14.8078 15.0518 14.8604 14.9591 14.9531C14.8664 15.0458 14.8138 15.1712 14.8127 15.3023C14.8115 15.4334 14.8619 15.5597 14.953 15.654L16.366 17.068C16.4603 17.1591 16.5866 17.2095 16.7177 17.2083C16.8488 17.2072 16.9742 17.1546 17.0669 17.0619C17.1596 16.9692 17.2122 16.8438 17.2133 16.7127C17.2145 16.5816 17.1641 16.4553 17.073 16.361L15.66 14.947Z" fill="black"/>
<path d="M2.988 10C2.988 9.86739 2.93532 9.74021 2.84155 9.64645C2.74779 9.55268 2.62061 9.5 2.488 9.5H0.5C0.367392 9.5 0.240215 9.55268 0.146447 9.64645C0.0526785 9.74021 0 9.86739 0 10C0 10.1326 0.0526785 10.2598 0.146447 10.3536C0.240215 10.4473 0.367392 10.5 0.5 10.5H2.488C2.62061 10.5 2.74779 10.4473 2.84155 10.3536C2.93532 10.2598 2.988 10.1326 2.988 10Z" fill="black"/>
<path d="M19.5 9.5H17.5C17.3674 9.5 17.2402 9.55268 17.1464 9.64645C17.0527 9.74021 17 9.86739 17 10C17 10.1326 17.0527 10.2598 17.1464 10.3536C17.2402 10.4473 17.3674 10.5 17.5 10.5H19.5C19.6326 10.5 19.7598 10.4473 19.8536 10.3536C19.9473 10.2598 20 10.1326 20 10C20 9.86739 19.9473 9.74021 19.8536 9.64645C19.7598 9.55268 19.6326 9.5 19.5 9.5Z" fill="black"/>
<path d="M4.335 14.953L2.927 16.361C2.83592 16.4553 2.78552 16.5816 2.78666 16.7127C2.7878 16.8438 2.84039 16.9692 2.93309 17.0619C3.02579 17.1546 3.1512 17.2072 3.2823 17.2083C3.4134 17.2095 3.5397 17.1591 3.634 17.068L5.042 15.66C5.13308 15.5657 5.18348 15.4394 5.18234 15.3083C5.1812 15.1772 5.12861 15.0518 5.03591 14.9591C4.9432 14.8664 4.8178 14.8138 4.6867 14.8126C4.5556 14.8115 4.4293 14.8619 4.335 14.953Z" fill="black"/>
<path d="M15.306 5.18795C15.3717 5.18807 15.4368 5.17524 15.4975 5.15019C15.5583 5.12513 15.6135 5.08836 15.66 5.04195L17.073 3.62795C17.1208 3.58183 17.1588 3.52666 17.1851 3.46566C17.2113 3.40465 17.225 3.33904 17.2256 3.27266C17.2262 3.20627 17.2136 3.14043 17.1884 3.07898C17.1633 3.01753 17.1261 2.9617 17.0792 2.91476C17.0323 2.86781 16.9764 2.83068 16.915 2.80554C16.8535 2.7804 16.7877 2.76775 16.7213 2.76833C16.6549 2.76891 16.5893 2.7827 16.5283 2.8089C16.4673 2.83511 16.4121 2.8732 16.366 2.92095L14.953 4.33495C14.8833 4.40488 14.8359 4.49387 14.8167 4.59071C14.7975 4.68756 14.8073 4.78792 14.8451 4.87915C14.8829 4.97037 14.9468 5.04838 15.0288 5.10334C15.1108 5.15829 15.2073 5.18774 15.306 5.18795Z" fill="black"/>
</svg>
