<svg width="21" height="20" viewBox="0 0 21 20" fill="none" xmlns="http://www.w3.org/2000/svg">
<path d="M15.5308 7.12601C15.4393 7.04476 15.3211 6.99988 15.1988 6.99988C15.0764 6.99988 14.9583 7.04476 14.8668 7.12601C14.6768 7.30001 10.1988 11.318 10.1988 15C10.1988 16.3261 10.7255 17.5979 11.6632 18.5355C12.6009 19.4732 13.8727 20 15.1988 20C16.5248 20 17.7966 19.4732 18.7343 18.5355C19.672 17.5979 20.1988 16.3261 20.1988 15C20.1988 11.318 15.7208 7.30001 15.5308 7.12601ZM15.1988 19C14.1379 19 13.1205 18.5786 12.3703 17.8284C11.6202 17.0783 11.1988 16.0609 11.1988 15C11.1988 12.3 14.1838 9.17201 15.1988 8.18701C16.2138 9.17201 19.1988 12.303 19.1988 15C19.1988 16.0609 18.7773 17.0783 18.0272 17.8284C17.277 18.5786 16.2596 19 15.1988 19Z" fill="black"/>
<path d="M17.6988 14.5C17.5662 14.5 17.439 14.5527 17.3452 14.6464C17.2514 14.7402 17.1988 14.8674 17.1988 15C17.1988 15.5304 16.988 16.0391 16.613 16.4142C16.2379 16.7893 15.7292 17 15.1988 17C15.0662 17 14.939 17.0527 14.8452 17.1464C14.7514 17.2402 14.6988 17.3674 14.6988 17.5C14.6988 17.6326 14.7514 17.7598 14.8452 17.8536C14.939 17.9473 15.0662 18 15.1988 18C15.9944 18 16.7575 17.6839 17.3201 17.1213C17.8827 16.5587 18.1988 15.7956 18.1988 15C18.1988 14.8674 18.1461 14.7402 18.0523 14.6464C17.9585 14.5527 17.8314 14.5 17.6988 14.5Z" fill="black"/>
<path d="M4.99876 4.1C4.91221 4.03509 4.80695 4 4.69876 4C4.59058 4 4.48531 4.03509 4.39876 4.1C4.22676 4.229 0.198761 7.287 0.198761 10.5C0.198761 11.6935 0.672867 12.8381 1.51678 13.682C2.36069 14.5259 3.50529 15 4.69876 15C5.89224 15 7.03683 14.5259 7.88074 13.682C8.72466 12.8381 9.19876 11.6935 9.19876 10.5C9.19876 7.287 5.17076 4.229 4.99876 4.1ZM4.69876 14C3.7705 14 2.88026 13.6313 2.22389 12.9749C1.56751 12.3185 1.19876 11.4283 1.19876 10.5C1.19876 8.244 3.79876 5.887 4.69876 5.141C5.59876 5.887 8.19876 8.241 8.19876 10.5C8.19876 11.4283 7.83001 12.3185 7.17363 12.9749C6.51726 13.6313 5.62702 14 4.69876 14Z" fill="black"/>
<path d="M11.1988 7C11.9944 7 12.7575 6.68393 13.3201 6.12132C13.8827 5.55871 14.1988 4.79565 14.1988 4C14.1988 2.433 11.7988 0.351003 11.5218 0.119003C11.4315 0.042598 11.317 0.000671387 11.1988 0.000671387C11.0805 0.000671387 10.966 0.042598 10.8758 0.119003C10.5988 0.351003 8.19876 2.433 8.19876 4C8.19876 4.79565 8.51483 5.55871 9.07744 6.12132C9.64005 6.68393 10.4031 7 11.1988 7ZM11.1988 1.168C12.0788 1.979 13.1988 3.258 13.1988 4C13.1988 4.53044 12.988 5.03914 12.613 5.41422C12.2379 5.78929 11.7292 6 11.1988 6C10.6683 6 10.1596 5.78929 9.78455 5.41422C9.40948 5.03914 9.19876 4.53044 9.19876 4C9.19876 3.259 10.3188 1.98 11.1988 1.168Z" fill="black"/>
</svg>
